<svg xmlns="http://www.w3.org/2000/svg" viewBox="0 0 72 19" width="72" height="19"><style>.st1{fill:#010101}</style><path class="st1" d="M1 1.3h4.7v12.9h7.9v3.7H1V1.3zM14.3 9.6c0-5 3.9-8.6 9.2-8.6s9.2 3.6 9.2 8.6-3.9 8.6-9.2 8.6-9.2-3.6-9.2-8.6zm13.7 0c0-2.9-2-4.7-4.5-4.7S19 6.8 19 9.6c0 2.9 2 4.7 4.5 4.7 2.5.1 4.5-1.8 4.5-4.7zM46.3 9.3h4.1v6.9c-1.9 1.4-4.5 2.1-7 2.1-5.3 0-9.1-3.6-9.1-8.6S38.2 1 43.6 1c3.1 0 5.6 1.1 7.2 3l-3 2.7c-1.1-1.3-2.4-1.8-4-1.8-2.8 0-4.7 1.9-4.7 4.7 0 2.8 1.9 4.7 4.7 4.7.9 0 1.7-.2 2.5-.5V9.3zM52.6 9.6c0-5 3.9-8.6 9.2-8.6S71 4.6 71 9.6s-3.9 8.6-9.2 8.6-9.2-3.6-9.2-8.6zm13.7 0c0-2.9-2-4.7-4.5-4.7s-4.5 1.9-4.5 4.7c0 2.9 2 4.7 4.5 4.7 2.5.1 4.5-1.8 4.5-4.7z"/></svg>